<svg id="Layer_1" data-name="Layer 1" xmlns="http://www.w3.org/2000/svg" viewBox="0 0 202 60"><title>ForkArrowLogo</title><path d="M114.9,31.58H107l-.61,2h-.29l-.39-1.78h-4.61c3.31,2.7,5,5.79,4.22,9.83s-3.46,6.23-7.51,7.39l3.52,4.69,3.45,4.58a2.28,2.28,0,0,1-3.08-.87C99.92,54.89,98,52.45,96.08,50a2.57,2.57,0,0,0-1.58-.93c-1.75-.11-3.51,0-5.27,0-1,0-1.23.45-1.22,1.32,0,2.24.06,4.49,0,6.72,0,.48-.59.93-.91,1.39-.3-.47-.86-.94-.87-1.42,0-7.69-.11-15.38,0-23.07,0-1.94-.6-2.39-2.36-2.26s-3.81,0-5.9,0c6.18,8.29,5,13.5-3.68,17.35l6.9,9.15a2.3,2.3,0,0,1-3-.8c-1.78-2.44-3.59-4.88-5.51-7.21a3.58,3.58,0,0,0-2.22-1.14c-1.91-.16-3.85,0-6,0,0,2.72,0,5.3,0,7.88,0,.53-.59,1-.9,1.55-.32-.51-.92-1-.92-1.52-.06-7.63-.11-15.26,0-22.89,0-1.82-.58-2.25-2.28-2.19-3.25.13-6.51,0-10.13,0L60.6,58.22c-1.26.56-2,.32-2.37-.86,0-.11-.11-.22-.15-.33-1.88-4.52-1.88-4.52-6.72-4.53-2.24,0-4.49.13-6.72,0a2.54,2.54,0,0,0-3,2.1c-.27.92-.78,1.77-1.07,2.69-.37,1.18-1.07,1.5-2.45,1,3.51-8.64,7-17.23,10.63-26.2-1.82,0-3.3,0-4.76.05-.28,0-.67.61-.76,1-1,4.42-2.42,5.64-7,5.48q-8-.28-16-.81c-5.68-.37-11.34-.87-17-1.33a3.11,3.11,0,0,1-1.86-.78,8.46,8.46,0,0,1,1.29-.27c9.13-.25,18.26-.48,27.4-.75a22.8,22.8,0,0,0,2.81-.45l-.06-.94L2,32.38l0-.71a5.92,5.92,0,0,1,1.15-.25c8.66-.2,17.31-.36,26-.57,1.35,0,2.69-.27,4-.41v-.88c-1.26-.15-2.52-.4-3.79-.44-8.41-.23-16.82-.41-25.24-.63-.74,0-1.48-.18-2.22-.27l0-.54c2.79-.11,5.58-.26,8.38-.31,6.84-.14,13.68-.21,20.52-.35a19.05,19.05,0,0,0,2.67-.44l0-.85A28,28,0,0,0,30,25.22c-8.41-.18-16.83-.29-25.24-.47a24.23,24.23,0,0,1-3-.43l0-.61a19,19,0,0,1,2.24-.38q15.77-.93,31.52-1.8a17.53,17.53,0,0,1,2.9,0,5.32,5.32,0,0,1,5,5.22c.14,2.64.14,2.66,2.81,2.67,4.29,0,8.57,0,13.08,0V3.08C60.19,3,60.83,3,61.48,3c4.23,0,8.47,0,12.71,0,.74,0,2.11-.67,2.13.83s-1.43.93-2.23.95c-3.51.08-7,0-10.53.05H61.47V19.39h9.81a10.46,10.46,0,0,1,2.17,0c.46.1.83.59,1.23.9-.4.3-.8.86-1.21.87-3.33.08-6.66,0-10,0H61.42v8.13H84.93c-4.78-2.95-7.51-6.93-7.59-12.4A13.59,13.59,0,0,1,81.66,6.72c5.64-5.49,14.92-4.93,20.27,1.09,4.34,4.88,5.63,15.35-4.19,21.59h8l.26-2.35.48,0,.37,2.37h2.48V2.86h5.77c1.46,0,2.91,0,4.36,0a9.17,9.17,0,0,1,9.22,7.66c.72,4.73-1.73,8.67-6.39,10.28-.28.1-.55.22-1.16.46a41.29,41.29,0,0,1,3.6,4.82c1.84,3.36,4.58,4.1,8.26,3.21,0-.58.09-1.28.09-2,0-7.56,0-15.13,0-22.7,0-.72-.33-1.73.94-1.76s1,1,1,1.72c0,4.22,0,8.43.41,12.83,1-1.08,2-2.15,3-3.25,3-3.4,6-6.79,9-10.25a2.7,2.7,0,0,1,3.29-.82l-7.08,8.11c-1.4,1.6-2.77,3.21-4.22,4.76a1.24,1.24,0,0,0,0,2c3.26,3.58,6.48,7.21,9.76,10.77a2.6,2.6,0,0,0,1.68.81c7.68,0,15.37,0,23.06,0a3.24,3.24,0,0,0,.67-.26l-5-13.47.21-.4a97.71,97.71,0,0,0,31.1,15.18c-11.33,3.31-21.45,8.81-31.19,15.41l5.71-14.29c-3.28,0-6-.06-8.65.07-.39,0-.88.88-1.08,1.44-2.71,7.83-5.37,15.68-8,23.53a3,3,0,0,1-1,1.46Q153,47.64,149.4,37L149,37q-3.58,10.63-7.18,21.27l-.41,0c-.78-2.25-1.57-4.49-2.33-6.74-2.1-6.26-4.21-12.51-6.27-18.77-.32-.95-.77-1.39-1.8-1.34-1.55.06-3.11,0-4.78.17,5.12,2.88,8.13,7.06,8.23,13A13.37,13.37,0,0,1,129.74,55a14,14,0,0,1-20.44-2C105.2,47.71,104.54,37.5,114.9,31.58Zm17.58,13.07a12,12,0,1,0-12,12A12,12,0,0,0,132.48,44.65ZM91.37,4.81a12,12,0,1,0,12,12.07A12.07,12.07,0,0,0,91.37,4.81Zm20,7.13c0,2,0,4,0,6,0,.9.19,1.5,1.3,1.47,2.53-.06,5.08.09,7.6-.06A7.17,7.17,0,0,0,127,12a7.22,7.22,0,0,0-6.82-7.13c-2.47-.13-5,0-7.42-.06-1.18,0-1.43.55-1.42,1.56C111.37,8.2,111.34,10.07,111.35,11.94ZM88,47.08c2.91,0,5.51,0,8.1,0,4.2-.06,7.31-2.9,7.52-6.81a7.1,7.1,0,0,0-6.8-7.66,66.59,66.59,0,0,0-7.61-.07c-.41,0-1.15.59-1.16.92C88,37.92,88,42.37,88,47.08Zm-23.66,0c2.79,0,5.38,0,8,0,4.33,0,7.54-2.92,7.66-6.86a7.25,7.25,0,0,0-7.23-7.68c-2.35-.12-4.72,0-7.08,0-.88,0-1.34.23-1.34,1.21C64.38,38.06,64.37,42.41,64.37,47.08Zm85.26-15.41c2.39,7,4.72,13.85,7,20.68l.47-.07c2.31-6.77,4.61-13.54,7-20.61Zm-15.28-.11c2.39,7.09,4.68,13.9,7,20.71l.47,0,6.92-20.69ZM49.67,36.05,49.2,36,43.33,50.47h12.1Zm74.88-6.52a2.19,2.19,0,0,0-.15-.73q-2.61-3.5-5.26-6.94a1.4,1.4,0,0,0-.87-.56c-2.27,0-4.53,0-6.91,0,0,2.52-.07,4.76.06,7a1.76,1.76,0,0,0,1.23,1.22C116.57,29.57,120.5,29.53,124.55,29.53Zm10.5-.06h12.12L137,18.25c-.82,1.34-1.8,2.25-1.9,3.24C134.89,24.05,135.05,26.65,135.05,29.47Z"/></svg>